<svg width="209" height="55" viewBox="0 0 209 55" fill="none" xmlns="http://www.w3.org/2000/svg">
<path d="M63.3892 7.738H58.7532V21H63.3892C67.6262 21 70.3812 18.397 70.3812 14.388C70.3812 10.36 67.6262 7.738 63.3892 7.738ZM61.4132 18.739V9.98H63.2942C66.0872 9.98 67.6642 11.633 67.6642 14.388C67.6642 17.143 66.0872 18.739 63.2942 18.739H61.4132ZM81.7583 21H84.5703L79.8013 7.719H76.7043L71.9353 21H74.7283L75.6023 18.473H80.8843L81.7583 21ZM80.1623 16.345H76.3243L78.2433 10.797L80.1623 16.345ZM86.0299 9.885H89.5639V21H92.2239V9.885H95.7579V7.738H86.0299V9.885ZM107.085 21H109.897L105.128 7.719H102.031L97.2617 21H100.055L100.929 18.473H106.211L107.085 21ZM105.489 16.345H101.651L103.57 10.797L105.489 16.345ZM116.321 14.35C116.321 18.321 119.228 21.114 123.047 21.114C125.992 21.114 128.386 19.556 129.279 16.82H126.22C125.593 18.112 124.453 18.739 123.028 18.739C120.71 18.739 119.057 17.029 119.057 14.35C119.057 11.652 120.71 9.961 123.028 9.961C124.453 9.961 125.593 10.588 126.22 11.861H129.279C128.386 9.144 125.992 7.567 123.047 7.567C119.228 7.567 116.321 10.379 116.321 14.35ZM140.937 21H143.749L138.98 7.719H135.883L131.114 21H133.907L134.781 18.473H140.063L140.937 21ZM139.341 16.345H135.503L137.422 10.797L139.341 16.345ZM148.571 13.761V9.904H150.68C152.181 9.904 152.846 10.626 152.846 11.842C152.846 13.02 152.181 13.761 150.68 13.761H148.571ZM155.582 11.842C155.582 9.543 153.986 7.738 150.794 7.738H145.911V21H148.571V15.908H150.794C154.214 15.908 155.582 13.856 155.582 11.842ZM157.148 9.885H160.682V21H163.342V9.885H166.876V7.738H157.148V9.885ZM169.159 15.927C169.159 19.423 171.553 21.133 174.46 21.133C177.367 21.133 179.875 19.423 179.875 15.927V7.738H177.196V15.946C177.196 17.77 176.208 18.72 174.498 18.72C172.807 18.72 171.819 17.77 171.819 15.946V7.738H169.159V15.927ZM189.855 11.861C189.855 13.058 189.19 13.837 187.708 13.837H185.485V9.942H187.708C189.19 9.942 189.855 10.683 189.855 11.861ZM182.825 7.738V21H185.485V15.832H186.739L189.665 21H192.743L189.57 15.623C191.698 15.053 192.591 13.419 192.591 11.804C192.591 9.581 190.995 7.738 187.803 7.738H182.825ZM203.072 7.719H195.377V21H203.072V18.834H198.037V15.319H202.502V13.21H198.037V9.885H203.072V7.719Z" fill="#D90368"/>
<path d="M69.5819 28.826H59.0519V47H69.5819V44.036H62.6919V39.226H68.8019V36.34H62.6919V31.79H69.5819V28.826ZM89.8678 47H94.0538L88.2558 37.978L93.9498 28.852H89.8418L86.3058 34.936L82.3798 28.852H78.1938L83.9918 37.848L78.2718 47H82.3798L85.9418 40.89L89.8678 47ZM106.574 37.094V31.816H109.46C111.514 31.816 112.424 32.804 112.424 34.468C112.424 36.08 111.514 37.094 109.46 37.094H106.574ZM116.168 34.468C116.168 31.322 113.984 28.852 109.616 28.852H102.934V47H106.574V40.032H109.616C114.296 40.032 116.168 37.224 116.168 34.468ZM135.392 28.826H124.862V47H135.392V44.036H128.502V39.226H134.612V36.34H128.502V31.79H135.392V28.826ZM154.43 34.494C154.43 36.132 153.52 37.198 151.492 37.198H148.45V31.868H151.492C153.52 31.868 154.43 32.882 154.43 34.494ZM144.81 28.852V47H148.45V39.928H150.166L154.17 47H158.382L154.04 39.642C156.952 38.862 158.174 36.626 158.174 34.416C158.174 31.374 155.99 28.852 151.622 28.852H144.81ZM166.615 31.79H171.451V47H175.091V31.79H179.927V28.852H166.615V31.79ZM201.38 41.748C201.38 35.352 192.072 37.38 192.072 33.74C192.072 32.258 193.138 31.556 194.568 31.608C196.128 31.634 197.09 32.57 197.168 33.766H201.172C200.938 30.49 198.39 28.592 194.672 28.592C190.928 28.592 188.276 30.568 188.276 33.844C188.25 40.422 197.61 38.056 197.61 41.982C197.61 43.282 196.596 44.192 194.88 44.192C193.19 44.192 192.228 43.23 192.124 41.774H188.224C188.276 45.206 191.188 47.182 194.958 47.182C199.092 47.182 201.38 44.608 201.38 41.748Z" fill="#D90368"/>
<path d="M27.5002 30.9375C26.3104 30.9375 25.1474 30.5847 24.1581 29.9237C23.1688 29.2627 22.3978 28.3232 21.9425 27.2239C21.4872 26.1247 21.3681 24.9152 21.6002 23.7483C21.8323 22.5814 22.4052 21.5095 23.2465 20.6682C24.0878 19.8269 25.1597 19.2539 26.3266 19.0218C27.4935 18.7897 28.7031 18.9088 29.8023 19.3642C30.9015 19.8195 31.841 20.5905 32.502 21.5798C33.163 22.569 33.5158 23.7321 33.5158 24.9219C33.5102 26.5156 32.8746 28.0424 31.7476 29.1693C30.6207 30.2962 29.0939 30.9318 27.5002 30.9375ZM30.1858 30.9375H24.8147C24.1815 30.9376 23.5562 31.0783 22.984 31.3496C22.4118 31.6208 21.907 32.0157 21.5061 32.5059C21.0956 32.9933 20.8011 33.5675 20.6448 34.1853C20.4885 34.8031 20.4745 35.4483 20.6037 36.0723L22.6662 46.3848C22.8637 47.3574 23.3903 48.2324 24.1572 48.8623C24.9241 49.4923 25.8847 49.8389 26.8772 49.8437H28.1233C29.1158 49.8389 30.0763 49.4923 30.8432 48.8623C31.6102 48.2324 32.1367 47.3574 32.3342 46.3848L34.3967 36.0723C34.5259 35.4483 34.5119 34.8031 34.3556 34.1853C34.1993 33.5675 33.9048 32.9933 33.4944 32.5059C33.0934 32.0157 32.5886 31.6208 32.0164 31.3496C31.4443 31.0783 30.819 30.9376 30.1858 30.9375ZM38.7151 31.8613C38.5691 32.2815 38.5918 32.742 38.7783 33.1458C38.9649 33.5497 39.3007 33.8655 39.7152 34.0268C40.1298 34.1882 40.5907 34.1826 41.0012 34.0111C41.4116 33.8396 41.7396 33.5157 41.9162 33.1074C42.6182 31.3216 42.9754 29.4189 42.969 27.5C42.969 23.3974 41.3392 19.4629 38.4383 16.5619C35.5373 13.661 31.6028 12.0312 27.5002 12.0312C23.3976 12.0312 19.4631 13.661 16.5622 16.5619C13.6612 19.4629 12.0315 23.3974 12.0315 27.5C12.0229 29.419 12.3802 31.3221 13.0842 33.1074C13.209 33.4283 13.4272 33.7043 13.7107 33.8996C13.9942 34.095 14.3298 34.2007 14.674 34.2031C14.8884 34.2038 15.1006 34.1599 15.2971 34.0742C15.7207 33.9107 16.0625 33.5862 16.2476 33.1716C16.4328 32.757 16.4464 32.2859 16.2854 31.8613C15.5771 30.0381 15.3241 28.0697 15.5482 26.1266C15.7723 24.1835 16.4667 22.3243 17.5714 20.7101C18.676 19.096 20.1576 17.7755 21.8877 16.863C23.6178 15.9506 25.5442 15.4737 27.5002 15.4737C29.4562 15.4737 31.3827 15.9506 33.1128 16.863C34.8429 17.7755 36.3244 19.096 37.4291 20.7101C38.5337 22.3243 39.2282 24.1835 39.4522 26.1266C39.6763 28.0697 39.4233 30.0381 38.7151 31.8613ZM27.5002 5.15625C22.6636 5.15155 17.956 6.71638 14.0847 9.61566C10.2134 12.5149 7.38736 16.5921 6.03115 21.2347C4.67494 25.8773 4.86179 30.8346 6.56362 35.3619C8.26546 39.8893 11.3904 43.7421 15.469 46.3418C15.8536 46.5897 16.3209 46.6746 16.7681 46.5779C17.2154 46.4812 17.6059 46.2108 17.8537 45.8262C18.1016 45.4416 18.1865 44.9742 18.0898 44.527C17.9931 44.0798 17.7227 43.6893 17.3381 43.4414C13.8884 41.2425 11.2449 37.984 9.80455 34.155C8.3642 30.326 8.20467 26.1331 9.3499 22.2058C10.4951 18.2784 12.8833 14.8284 16.156 12.3738C19.4287 9.91912 23.4093 8.5922 27.5002 8.5922C31.5912 8.5922 35.5717 9.91912 38.8444 12.3738C42.1171 14.8284 44.5053 18.2784 45.6505 22.2058C46.7958 26.1331 46.6362 30.326 45.1959 34.155C43.7555 37.984 41.1121 41.2425 37.6623 43.4414C37.3517 43.6441 37.115 43.9417 36.9875 44.29C36.86 44.6383 36.8486 45.0184 36.9549 45.3737C37.0613 45.729 37.2797 46.0404 37.5776 46.2613C37.8754 46.4823 38.2368 46.6009 38.6076 46.5996C38.9326 46.5945 39.2508 46.5057 39.5315 46.3418C43.61 43.7421 46.735 39.8893 48.4368 35.3619C50.1386 30.8346 50.3255 25.8773 48.9693 21.2347C47.6131 16.5921 44.787 12.5149 40.9157 9.61566C37.0444 6.71638 32.3368 5.15155 27.5002 5.15625Z" fill="#D90368"/>
</svg>
